<?xml version="1.0" encoding="utf-8"?>
<!-- Generator: Adobe Illustrator 21.0.0, SVG Export Plug-In . SVG Version: 6.00 Build 0)  -->
<svg version="1.1" id="Layer_1" xmlns="http://www.w3.org/2000/svg" xmlns:xlink="http://www.w3.org/1999/xlink" x="0px" y="0px"
	 viewBox="0 0 758.2 740" style="enable-background:new 0 0 758.2 740;" xml:space="preserve">
<style type="text/css">
	.st0{fill:#231F20;}
</style>
<path id="XMLID_281_" class="st0" d="M562,32.7l16.7,37.5L404.1,30.5l-0.1-3.7c32.9,4.1,112.2,10.9,132.7,10.1L517.3,0l153.2,37.5
	l0.1,3.4C670.6,40.9,588.5,30.3,562,32.7z M168.9,39.5l-19.4,36.9l153.2-37.5l0.1-3.4c0,0-82.1,10.6-108.6,8.2l16.7-37.5L36.3,45.9
	l-0.1,3.7C69.1,45.4,148.5,38.7,168.9,39.5z M347.5,56.5c1.9,0.6,3.8,0.9,5.9,0.9c2.1,0,4-0.3,5.9-0.9c7.7-2.5,13.3-9.7,13.3-18.3
	c0-10.6-8.6-19.2-19.2-19.2c-10.6,0-19.2,8.6-19.2,19.2C334.2,46.8,339.8,54,347.5,56.5z M349.7,498.7v-41.4h-17.4
	c-1,10.9-2.1,21.5-3.3,31.9c-0.3,3-0.7,6-1,9c-3.4-0.1-6.8-0.3-10.1-0.4c0.4-3.2,0.7-6.4,1.1-9.7c7.6-70.6,13.6-153.4,18.7-242.5
	c0.3-4.6,0.5-9.2,0.8-13.8c0.3-4.6,0.5-9.2,0.8-13.8c0.4-7.3,0.8-14.6,1.2-21.9c0.2-4.6,0.5-9.2,0.7-13.8c0.2-4.6,0.5-9.2,0.7-13.7
	c1.7-32.2,3.3-65,4.8-98.1c2.1,0.4,4.3,0.7,6.6,0.7s4.4-0.2,6.6-0.7c1.6,33.2,3.2,66,4.8,98.2c0.2,4.6,0.5,9.2,0.7,13.8
	c0.2,4.6,0.5,9.2,0.7,13.8c0.4,7.2,0.8,14.4,1.2,21.6c0.3,4.6,0.5,9.2,0.8,13.7c0.3,4.6,0.5,9.2,0.8,13.8
	c5.1,89.3,11.1,172,18.7,242.8c0.4,3.4,0.7,6.7,1.1,10.1c-3.4,0.2-6.8,0.3-10.1,0.4c-0.3-3.1-0.7-6.2-1-9.4
	c-1.1-10.4-2.2-21-3.3-31.9h-17.4v41.5C354.6,498.8,352.2,498.7,349.7,498.7z M357.1,427.8l15.5,9.2c-5.3-58.4-9.7-123.2-13.6-191.7
	c-0.3-4.6-0.5-9.1-0.8-13.7c-0.3,0-0.7,0-1,0v196.2H357.1z M357.1,448.1h16.5c0-0.1,0-0.2,0-0.3L357.1,435V448.1z M334.3,437
	l15.5-9.2V231.6h-1c-0.3,4.6-0.5,9.2-0.8,13.8C344,313.9,339.6,378.6,334.3,437z M349.7,448.1V435l-16.4,12.9c0,0.1,0,0.2,0,0.3
	L349.7,448.1L349.7,448.1z M412.2,643.3c9.8,40.9,21.4,69.1,34.3,83.9l-9.3,4.5c-10.2-12.6-19.4-32.2-27.5-59.2h-52.5v20.8l-3.6-1.8
	l-3.7,1.8v-20.8h-52.5c-8.2,27.1-17.3,46.6-27.5,59.2l-9.3-4.5c13.1-15,24.7-43.7,34.6-85.3c4.6-19.5,8.9-41.9,13-67.5
	c3.4,0.2,6.7,0.3,10.1,0.4c-4.4,28.3-9.2,53-14.4,74l46.1-38.5v-35c0.5,0,1,0,1.5,0c1.9,0,3.9,0,5.8,0v35l46.1,38.5
	c-5.2-21.1-10-45.8-14.4-74.2c3.4-0.1,6.8-0.3,10.1-0.4c2.6,16.7,5.3,32,8.2,46c1.5,7.6,3.1,14.8,4.8,21.6
	C411.9,642.4,412.1,642.9,412.2,643.3z M349.7,618.5l-49.4,44.9h49.4V618.5z M406.5,663.4l-49.4-44.9v44.9H406.5z M276.8,627.9
	c-28-6.8-67.1-18.5-67.1-60.6v-3.9c-0.9-0.2-1.8-0.3-2.6-0.5c-4.6-0.9-9.4-1.9-14.1-2.9c-10.3-2.3-20.5-4.9-30.3-7.7
	c-3.4-1-6.7-2-9.9-3v18c0,42.1-43.7,53.8-71.7,60.6v1.7h195.8L276.8,627.9L276.8,627.9z M518.8,571.5v-24.6v-51.8V448
	c12.6-18,24.4-35,35.4-51c5.5,20.4,12.2,45.1,19,70.3c4.4-1.3,8.8-2.6,13.2-4c9.2-2.9,18-5.9,26.6-9c4.4-1.6,8.7-3.2,12.9-4.9
	l-31-115c8.7-14.6,16.3-28.7,22.8-42.5c2-4.2,3.8-8.4,5.6-12.6c1.8-4.3,3.5-8.6,5-12.8c2.9-7.9,5.3-15.7,7.3-23.6
	c1.1-4.5,2.1-9,3-13.5c0.9-4.6,1.6-9.2,2.1-13.8c1-8,1.4-16.1,1.4-24.4c0-64.5-43.3-83.9-123.2-83.9h-98v1.7c28,6.8,41,15,41,56.4
	v10.1c4.6,0.6,9.2,1.2,13.7,1.8c9.8,1.4,19.7,2.9,29.5,4.6c4.6,0.8,9.2,1.6,13.7,2.5V157c2.6-0.5,5.2-0.8,8.5-0.8
	c26,0,50.2,12.7,51.9,41.4c0.1,1.1,0.1,2.2,0.1,3.3c0,3.7-0.1,7.3-0.2,10.9c-0.2,4.7-0.6,9.3-1.2,13.9c-1,7.7-2.5,15.2-4.6,23.1
	c-1.2,4.2-2.5,8.6-4.1,13.1c-1.4,4.1-3,8.4-4.8,12.9c-9.3,23.1-23.8,51.6-45.5,93.1V263.6c-3.9-0.9-7.8-1.7-11.8-2.5
	c-0.7-0.1-1.3-0.3-2-0.4c-9.9-2-19.7-3.8-29.5-5.4c-4.6-0.8-9.2-1.5-13.7-2.2v252v50.2v16.1c0,40.5-0.7,49.2-27.5,56
	c-0.6,0.2-1.2,0.3-1.8,0.5v1.7h114.6v-1.7C525.2,621.4,518.8,616.5,518.8,571.5z M662.3,584.6l-15.5-57.3c-4.3,1.5-8.6,3.1-13,4.5
	c-8.7,2.9-17.6,5.8-26.7,8.4c-4.4,1.3-8.8,2.5-13.2,3.8c8.5,31.4,14.8,55,15.9,58.9c3.6,13.3,1.8,26.7,1.8,26.7h98.6v-1.7
	C690.7,622.1,673.1,611.9,662.3,584.6z M648.5,247.5c-2.1,7.9-4.6,15.9-7.5,24c-1.5,4.2-3.2,8.5-5,12.8c2.3,0.9,4.6,1.8,6.9,2.8
	c34,13.9,54.9,27.7,78.4,57.8h2.5l-27.5-101.8c-6.7,3.7-12.8,2.9-21-0.4c-7.3-3-15.5-5.9-23.7-8.7
	C650.7,238.5,649.7,243,648.5,247.5z M381.2,218.1c0.3,4.6,0.5,9.2,0.8,13.8c21.7,0.7,43.9,2.6,66.1,5.5c4.6,0.6,9.2,1.2,13.7,1.9
	c4.6,0.7,9.2,1.4,13.7,2.1c9.9,1.6,19.7,3.4,29.5,5.3c4.6,0.9,9.2,1.9,13.7,2.9c4.6,1,9.2,2,13.7,3.1c7.9,1.8,15.7,3.8,23.3,5.8
	c1.6-4.6,3-8.9,4.1-13.1c2.2-7.9,3.6-15.3,4.4-22.9c0.5-4.5,0.8-9.1,1-13.9c-10.8-2.6-21.7-5.1-32.9-7.3c-4.5-0.9-9.1-1.8-13.7-2.7
	c-4.6-0.9-9.1-1.7-13.7-2.5c-9.7-1.7-19.5-3.2-29.5-4.6c-4.6-0.6-9.1-1.3-13.7-1.8c-4.6-0.6-9.1-1.1-13.7-1.6
	c-22.6-2.5-45.6-4.2-68.8-5c0.2,4.6,0.5,9.2,0.7,13.8C380.4,203.8,380.8,211,381.2,218.1z M223.4,243.4
	c29.1-5.8,62.8-9.6,101.4-11.1c0.3-4.6,0.5-9.2,0.8-13.8c0.4-7.3,0.8-14.6,1.2-22c0.2-4.6,0.5-9.2,0.7-13.8
	c-38,1-72.7,4.3-104.1,9.6V243.4z M152.7,534.8c4.5,1.5,9.1,2.9,13.7,4.2c9.4,2.7,19.2,5.2,29.5,7.5c4.5,1,9.1,2,13.7,2.9
	c4.5,0.9,9.1,1.7,13.7,2.5c0.5,0.1,1.1,0.2,1.6,0.3s1.1,0.2,1.6,0.3l0,0c2.1,0.4,4.3,0.7,6.4,1c1.1,0.2,2.2,0.3,3.3,0.5
	c2.2,0.3,4.4,0.6,6.6,0.9c0.7,0.1,1.5,0.2,2.2,0.3c1.3,0.2,2.6,0.3,3.9,0.5c2.6,0.3,5.2,0.7,7.9,1l0,0c0.8,0.1,1.7,0.2,2.5,0.3
	c0.4,0.1,0.8,0.1,1.2,0.1s0.8,0.1,1.2,0.1c0.2,0,0.4,0,0.6,0.1c0.6,0.1,1.3,0.1,1.9,0.2c3.4,0.4,6.7,0.7,10.2,1
	c0.9,0.1,1.7,0.2,2.6,0.2c4.7,0.4,9.5,0.8,14.3,1.1c0.8,0.1,1.6,0.1,2.4,0.2c0.8,0.1,1.6,0.1,2.4,0.2c0.2,0,0.4,0,0.6,0
	c0.9,0.1,1.8,0.1,2.8,0.2c2.2,0.1,4.4,0.2,6.6,0.4c0.1,0,0.2,0,0.3,0c0.5,0,1,0.1,1.4,0.1c0.7,0,1.4,0.1,2,0.1
	c0.8,0,1.7,0.1,2.5,0.1c1.7,0.1,3.4,0.1,5.1,0.2c0.8,0,1.7,0.1,2.5,0.1c0.1,0,0.1,0,0.2,0c1.2,0,2.4,0.1,3.6,0.1
	c1.2,0,2.4,0.1,3.6,0.1l0,0c2.1,0.1,4.3,0.1,6.5,0.1c0.7,0,1.4,0,2,0c1.8,0,3.5,0.1,5.3,0.1c2.8,0,5.6,0,8.4,0.1c0.5,0,1,0,1.5,0
	c1.9,0,3.9,0,5.8,0c4.6,0,9.2-0.1,13.7-0.2c0.7,0,1.4,0,2,0c4.6-0.1,9.2-0.2,13.8-0.4c3.4-0.1,6.8-0.3,10.1-0.4
	c4.6-0.2,9.2-0.5,13.8-0.7c12.6-0.8,25.2-1.8,37.5-3v-49.9c-14.7,1.8-29.4,3.2-44,4.2c-4.6,0.3-9.2,0.6-13.7,0.8
	c-3.4,0.2-6.7,0.3-10.1,0.4c-6.3,0.2-12.5,0.3-18.6,0.3c-1.5,0-3.1,0-4.6,0c-2.5,0-4.9,0-7.3-0.1c-3.7,0-7.5-0.1-11.1-0.2
	c-4.1-0.1-8.1-0.2-12.1-0.4c-3.4-0.1-6.8-0.3-10.1-0.4c-4.7-0.2-9.2-0.5-13.7-0.8c-29.5-1.9-55.9-5.4-79.3-10v0.1
	c-4.7-0.9-9.3-1.9-13.7-3c-4.7-1.1-9.3-2.2-13.7-3.4c-10.5-2.8-20.4-6-29.5-9.4c-4.8-1.8-9.4-3.6-13.7-5.6
	c-4.8-2.1-9.4-4.3-13.7-6.6v-0.1c-41.7-21.7-63.5-50.5-69.4-82c-0.1-0.5-0.2-1-0.3-1.5v-0.1c-0.1-0.4-0.1-0.8-0.2-1.1
	c0-0.2-0.1-0.5-0.1-0.7c-0.1-0.4-0.1-0.8-0.2-1.2l0,0c-0.2-1.1-0.3-2.2-0.4-3.3c-0.1-0.5-0.1-1.1-0.2-1.6s-0.1-1.1-0.1-1.6
	c0-0.1,0-0.2,0-0.2c0-0.6-0.1-1.1-0.1-1.7c0-0.6-0.1-1.2-0.1-1.8s0-1.1,0-1.7c0-0.1,0-0.2,0-0.4c0-0.5,0-1.1,0-1.6s0-1.1,0-1.6
	c0-0.1,0-0.2,0-0.4c0-0.6,0-1.1,0-1.6s0-0.9,0.1-1.4c0-0.6,0.1-1.3,0.1-1.9c0-0.2,0-0.4,0-0.6c0-0.5,0.1-1,0.1-1.5l0,0
	c0.1-0.6,0.1-1.2,0.2-1.8c0-0.4,0.1-0.8,0.1-1.2c0-0.3,0.1-0.6,0.1-0.8c0-0.3,0.1-0.5,0.1-0.7V359c0,0,0,0,0-0.1s0-0.1,0-0.2
	s0-0.3,0.1-0.4c0.1-0.5,0.2-1.1,0.2-1.6c0-0.1,0-0.2,0.1-0.3v-0.1c0.1-0.5,0.2-1,0.3-1.5c0.1-0.5,0.2-1,0.3-1.5
	c0-0.2,0.1-0.3,0.1-0.5c0.1-0.5,0.2-1,0.3-1.5c0,0,0,0,0-0.1c0.1-0.5,0.2-1.1,0.4-1.6c0-0.1,0-0.2,0.1-0.2c0.1-0.5,0.3-1,0.4-1.6
	v-0.1c0.1-0.4,0.2-0.8,0.3-1.3c0.7-2.6,1.6-5.3,2.5-7.8c0.1-0.4,0.3-0.7,0.4-1.1c0.1-0.2,0.1-0.3,0.2-0.5c0.1-0.3,0.3-0.7,0.4-1
	s0.2-0.6,0.4-0.9c0.1-0.2,0.2-0.5,0.3-0.7c0.1-0.3,0.2-0.5,0.3-0.8c0.2-0.4,0.4-0.9,0.6-1.3c0.2-0.5,0.5-1,0.7-1.5
	c0.1-0.1,0.1-0.3,0.2-0.4c0.2-0.3,0.3-0.7,0.5-1c0.1-0.2,0.2-0.4,0.3-0.6c0.2-0.4,0.4-0.8,0.6-1.3c0.9-1.7,1.9-3.5,2.9-5.2
	c0.3-0.5,0.7-1.1,1-1.6s0.7-1.1,1-1.6s0.6-1,1-1.5c0.3-0.4,0.5-0.8,0.8-1.2c0.3-0.4,0.5-0.7,0.8-1.1c0.1-0.1,0.1-0.2,0.2-0.2
	c0.2-0.2,0.4-0.5,0.5-0.7c1.6-2.3,3.4-4.5,5.3-6.7c0.4-0.4,0.8-0.9,1.1-1.3c0.4-0.5,0.8-0.9,1.2-1.4c0.2-0.2,0.3-0.4,0.5-0.5
	c0.7-0.8,1.4-1.5,2.2-2.3c0.3-0.3,0.6-0.6,0.9-0.9l0.7-0.7l0.1-0.1c0.3-0.3,0.6-0.6,0.9-0.9c0.9-0.9,1.9-1.8,2.8-2.7
	c0.3-0.2,0.5-0.5,0.8-0.7c0.8-0.7,1.7-1.5,2.5-2.2c0.5-0.4,0.9-0.8,1.4-1.2c0.1-0.1,0.2-0.2,0.3-0.2c0.4-0.4,0.9-0.7,1.3-1.1
	s0.9-0.7,1.3-1.1c2.1-1.6,4.2-3.3,6.4-4.8c0.3-0.2,0.6-0.5,1-0.7c0.3-0.2,0.6-0.5,1-0.7c0.3-0.2,0.6-0.4,1-0.7
	c0.3-0.2,0.7-0.5,1-0.7s0.6-0.4,1-0.6c0.7-0.5,1.5-1,2.3-1.5c0.6-0.4,1.2-0.8,1.9-1.2c1.5-0.9,2.9-1.8,4.4-2.7
	c0.3-0.2,0.6-0.4,0.9-0.5c0.4-0.2,0.7-0.4,1.1-0.6c0.3-0.2,0.7-0.4,1-0.6c0,0,0.1,0,0.1-0.1c0.5-0.3,1-0.5,1.5-0.8
	c0.6-0.3,1.3-0.7,1.9-1c0.8-0.4,1.5-0.8,2.3-1.2v-0.1v-57.2C46.1,248.7,0,306.7,0,372.7s46.2,124,138.8,158
	C143.5,531.6,148,533.2,152.7,534.8z M630.2,518.5c4.4-1.5,8.7-3,13-4.6c4.4-1.6,8.7-3.2,12.9-4.8c12.4-4.8,24.2-9.9,35.5-15.2
	c21.4-10,53.7-20.8,66.6-21.1l-21.6-79.6h-2.3c-6.8,18-24.4,29-50.9,44.2c-12.2,7-26,13.7-41.2,20.1c-4.2,1.8-8.5,3.5-12.8,5.2
	c-4.2,1.6-8.5,3.3-12.9,4.9c-8.6,3.1-17.5,6.1-26.6,9c-4.3,1.4-8.7,2.7-13.2,4c-4.4,1.3-8.8,2.5-13.2,3.7c-10.1,2.8-20.5,5.4-31,7.8
	v52.2c15.2-3,30-6.4,44.5-10.1c4.5-1.1,8.9-2.3,13.3-3.5c4.4-1.2,8.9-2.5,13.2-3.8C612.6,524.3,621.5,521.5,630.2,518.5z
	 M152.7,194.9v14.4v55.4v15.1v184.4c1.8,0.9,3.7,1.7,5.5,2.5c4.2,1.8,8.6,3.6,13,5.3c8.8,3.3,18.3,6.3,28.2,9
	c3.3,0.9,6.7,1.8,10.2,2.6V169.8c0-42.1,43.7-53.8,71.7-60.6v-1.7H85.6v1.7c28,6.8,67.1,18.5,67.1,60.6v24.6V194.9z"/>
</svg>
