<?xml version="1.0" encoding="UTF-8"?>
<svg width="14px" height="12px" viewBox="0 0 14 12" version="1.1" xmlns="http://www.w3.org/2000/svg" xmlns:xlink="http://www.w3.org/1999/xlink">
    <!-- Generator: Sketch 42 (36781) - http://www.bohemiancoding.com/sketch -->
    <title>“ copy</title>
    <desc>Created with Sketch.</desc>
    <defs></defs>
    <g id="Flow" stroke="none" stroke-width="1" fill="none" fill-rule="evenodd">
        <g id="Section-1.1" transform="translate(-530.000000, -872.000000)" fill="#FFFFFF">
            <g id="Group-5" transform="translate(455.000000, 858.000000)">
                <path d="M78.2508394,25.2297709 C79.9824049,25.2297709 81.2046863,24.1395255 81.2046863,22.3678767 C81.2046863,20.5621578 79.8805481,19.7444737 78.7261711,19.7444737 C78.2508394,19.7444737 77.9452691,19.8807544 77.7415555,20.0851754 L77.6057464,19.9829649 C78.0810781,18.4157371 79.5070732,17.1551409 81.4763044,16.4055972 L79.3373119,14.7702291 C76.4174172,16.0989656 74.9914222,18.586088 74.9914222,21.2435612 C74.9914222,23.4921923 76.1118469,25.2297709 78.2508394,25.2297709 Z M85.7774422,25.2297709 C87.5090076,25.2297709 88.731289,24.1395255 88.731289,22.3678767 C88.731289,20.5621578 87.4071508,19.7444737 86.2527739,19.7444737 C85.7774422,19.7444737 85.4718718,19.8807544 85.2681582,20.0851754 L85.1323492,19.9829649 C85.6076809,18.4157371 87.0336759,17.1551409 89.0029072,16.4055972 L86.8639146,14.7702291 C83.94402,16.0989656 82.5180249,18.586088 82.5180249,21.2435612 C82.5180249,23.4921923 83.6384496,25.2297709 85.7774422,25.2297709 Z" id="“-copy"></path>
            </g>
        </g>
    </g>
</svg>